# xmcd CD database file
#
# Track frame offsets:
#	150
#	55590
#	73920
#	109688
#	145833
#	171105
#	195748
#	255348
#	268683
#	291425
#
# Disc length: 4069 seconds
#
# Revision: 4
# Processed by: cddbd v1.5.2PL0 Copyright (c) Steve Scherf et al.
# Submitted via: CDex 1.51
#
DISCID=960fe30a
DTITLE=Eric Dolphy  - Vol. 164 - Eric Dolphy 1958-1961
DYEAR=1964
DGENRE=Jazz
TTITLE0=Bee Wamp
TTITLE1=April Fool
TTITLE2=G.W.
TTITLE3=Quiets Please
TTITLE4=Moods In Free Time
TTITLE5=Hazy Hues
TTITLE6=Stormy Weather
TTITLE7=Where I Live
TTITLE8=Gong East
TTITLE9=Beyond the Blue Horizon
EXTD=YEAR: 1964
EXTT0=
EXTT1=
EXTT2=
EXTT3=
EXTT4=
EXTT5=
EXTT6=
EXTT7=
EXTT8=
EXTT9=
PLAYORDER=
